<?xml version="1.0" encoding="utf-8"?>
<!-- Generator: Adobe Illustrator 26.0.0, SVG Export Plug-In . SVG Version: 6.00 Build 0)  -->
<svg version="1.1" xmlns="http://www.w3.org/2000/svg" xmlns:xlink="http://www.w3.org/1999/xlink" x="0px" y="0px"
	 viewBox="0 0 192.8 192.8" style="enable-background:new 0 0 192.8 192.8;" xml:space="preserve">
<style type="text/css">
	.st0{fill:#FFFFFF;}
	.st1{fill-rule:evenodd;clip-rule:evenodd;fill:#FFFFFF;}
</style>
<g id="Adidas_00000032637784284331295230000015681949474906677944_">
	<g id="Adidas">
		<path class="st0" d="M113.6,115.6v12.7c-2.6-1.7-5.7-2.7-9-2.7h-0.1c-9.2,0.1-16.6,7.5-16.6,16.7s7.5,16.7,16.6,16.7h0.1
			c3.3,0,6.4-1,9-2.7v1.7h7.7v-42.5L113.6,115.6L113.6,115.6z M113.6,144.1c-0.8,4.2-4.6,7.5-9,7.5h-0.1c-5-0.1-9.1-4.2-9.1-9.2
			s4.1-9.1,9.1-9.2h0.1c4.4,0,8.2,3.2,9,7.4V144.1z"/>
		<path class="st0" d="M149.7,126.4v1.8c-2.7-1.7-5.8-2.7-9-2.7h-0.1c-9.2,0.1-16.6,7.5-16.6,16.7s7.5,16.7,16.6,16.7h0.1
			c3.3,0,6.4-1,9-2.7v1.7h7.7v-31.7h-7.7V126.4z M149.7,144.1c-0.8,4.2-4.6,7.5-9,7.5h-0.1c-5-0.1-9.1-4.2-9.1-9.2s4.1-9.1,9.1-9.2
			h0.1c4.4,0,8.2,3.2,9,7.4V144.1z"/>
		<path class="st1" d="M184.7,140.2c-0.3-0.1-0.7-0.3-1.1-0.5c-1.7-0.6-4.5-1.3-8.4-2.2c-3.4-0.8-5.1-1.7-5.1-3
			c0-0.9,0.3-1.6,0.9-2.1c0.8-0.7,2.2-1,4.2-1c2.1,0,3.5,0.5,4.4,1.3c0.5,0.5,0.9,1.5,1.2,2.8h8.2c0-4-1.6-6.9-4.8-8.6
			c-0.2-0.1-0.3-0.2-0.5-0.3c-2.2-1-5.2-1.6-8.9-1.6c-4.5,0-7.9,1.2-10.1,3.6c-1.8,1.9-2.7,4.2-2.7,7c0,3.4,1.7,5.9,5.1,7.5
			c1.3,0.6,4.4,1.5,9.5,2.6c3.4,0.7,5,1.8,5,3.1c0,0.8-0.3,1.5-1.1,2.1c-0.9,0.8-2.3,1.2-4.2,1.2c-2.5,0-4.3-0.4-5.3-1.2
			s-1.6-1.9-1.6-3.4h-8.6c0,3.9,1.6,6.8,4.9,8.7c2.6,1.5,6.1,2.3,10.3,2.3c2.8,0,5.4-0.5,7.5-1.4c0.5-0.2,0.8-0.4,1.3-0.6
			c3.4-1.9,5-4.8,5-8.9C189.9,144.3,188.2,141.9,184.7,140.2z"/>
		<path class="st0" d="M28.6,126.4v1.8c-2.7-1.7-5.8-2.7-9-2.7h-0.1c-9.1,0.1-16.6,7.5-16.6,16.7s7.5,16.7,16.6,16.7h0.1
			c3.3,0,6.4-1,9-2.7v1.7h7.7v-31.7h-7.7V126.4z M28.6,144.1c-0.8,4.2-4.6,7.5-9,7.5h-0.1c-5-0.1-9.1-4.2-9.1-9.2s4.1-9.1,9.1-9.2
			h0.1c4.5,0,8.2,3.2,9,7.4V144.1z"/>
		<rect x="76.5" y="115.7" class="st1" width="8.4" height="7.3"/>
		<rect x="76.5" y="125.6" class="st1" width="8.4" height="32.5"/>
		<path class="st0" d="M65,115.6v12.7c-2.7-1.7-5.8-2.7-9-2.7h-0.1c-9.2,0.1-16.6,7.5-16.6,16.7S46.8,159,55.9,159H56
			c3.2,0,6.3-0.9,9-2.7v1.7h7.7v-42.5L65,115.6L65,115.6z M65,144.1c-0.8,4.2-4.6,7.5-9,7.5h-0.1c-5-0.1-9.1-4.2-9.1-9.2
			s4.1-9.1,9.1-9.2H56c4.5,0,8.2,3.2,9,7.4V144.1z"/>
	</g>
</g>
<g id="R_00000000210189338097211050000012671503314749281969_">
	<g id="R">
		<path class="st1" d="M181.2,120.6c0.8,0.4,1.6,0.6,2.4,0.6l0,0c0.8,0,1.6-0.2,2.4-0.6c0.8-0.4,1.4-1,1.8-1.8
			c0.4-0.7,0.6-1.6,0.6-2.4c0-0.9-0.2-1.7-0.6-2.5c-0.4-0.8-1-1.4-1.8-1.8s-1.6-0.6-2.4-0.6l0,0c-0.8,0-1.7,0.2-2.4,0.6
			c-0.8,0.4-1.4,1-1.8,1.8c-0.4,0.8-0.7,1.6-0.6,2.5c0,0.8,0.2,1.6,0.6,2.4S180.4,120.2,181.2,120.6L181.2,120.6z M180.1,114.4
			c0.4-0.6,0.9-1.2,1.5-1.5s1.3-0.5,2-0.5l0,0c0.7,0,1.4,0.2,2,0.5c0.6,0.4,1.2,0.9,1.5,1.5c0.4,0.6,0.5,1.3,0.5,2.1
			c0,0.7-0.2,1.4-0.5,2s-0.9,1.1-1.5,1.5s-1.3,0.5-2,0.5l0,0c-0.7,0-1.4-0.2-2-0.5s-1.1-0.9-1.5-1.5s-0.6-1.3-0.6-2
			C179.5,115.7,179.7,115,180.1,114.4L180.1,114.4z"/>
		<path class="st1" d="M185.5,117.8c-0.3-0.5-0.6-0.8-0.8-1c-0.1-0.1-0.3-0.2-0.5-0.3c0.5,0,0.8-0.2,1.1-0.5s0.4-0.6,0.4-1
			c0-0.3-0.1-0.5-0.3-0.8c-0.2-0.2-0.4-0.4-0.7-0.5c-0.2-0.1-0.6-0.1-1-0.1c-0.1,0-0.2,0-0.3,0h-1.8v5.3h0.8v-2.3h0.5
			c0.3,0,0.5,0.1,0.7,0.2c0.1,0,0.1,0.1,0.1,0.1c0.2,0.2,0.5,0.6,0.8,1.1l0.5,0.8h1L185.5,117.8z M183.8,115.8h-1.3v-1.6l0,0l0,0
			h1.3c0.3,0,0.4,0.1,0.5,0.1c0.2,0,0.3,0.1,0.4,0.3c0.1,0.1,0.1,0.3,0.1,0.4c0,0.2-0.1,0.4-0.3,0.6
			C184.4,115.7,184.2,115.8,183.8,115.8z"/>
	</g>
</g>
<g id="Right">
	<g id="Far_right">
		<polygon class="st1" points="124.8,115.6 162,115.6 138.8,77.1 113.3,34.5 102.8,40.9 86,50.9 102.8,78.8 		"/>
	</g>
</g>
<g id="Middle_00000148660515134241883100000002119121375214526365_">
	<g id="Middle">
		<polygon class="st1" points="113.7,115.2 104.7,100 82.4,63 56,78.8 55.1,79.4 56,80.9 76.6,115.2 		"/>
	</g>
</g>
<g id="Left_00000089575798796889475160000008220470915439189928_">
	<g id="Left">
		<path class="st1" d="M57.4,115.2H65l-7.6-12.7L51,91.8l-27.3,16.4l4.2,7C27.9,115.2,57.4,115.2,57.4,115.2z"/>
	</g>
</g>
</svg>
